<?xml version="1.0" encoding="UTF-8" standalone="no"?>
<!-- Uploaded to: SVG Repo, www.svgrepo.com, Generator: SVG Repo Mixer Tools -->

<svg
   version="1.1"
   id="Layer_1"
   viewBox="0 0 511.974 511.974"
   xml:space="preserve"
   sodipodi:docname="boxing-helmet-svgrepo-com.svg"
   inkscape:version="1.1.2 (0a00cf5339, 2022-02-04)"
   xmlns:inkscape="http://www.inkscape.org/namespaces/inkscape"
   xmlns:sodipodi="http://sodipodi.sourceforge.net/DTD/sodipodi-0.dtd"
   xmlns="http://www.w3.org/2000/svg"
   xmlns:svg="http://www.w3.org/2000/svg"><defs
   id="defs25" /><sodipodi:namedview
   id="namedview23"
   pagecolor="#505050"
   bordercolor="#eeeeee"
   borderopacity="1"
   inkscape:pageshadow="0"
   inkscape:pageopacity="0"
   inkscape:pagecheckerboard="0"
   showgrid="false"
   inkscape:zoom="2.0012691"
   inkscape:cx="1112.0444"
   inkscape:cy="293.06404"
   inkscape:window-width="3754"
   inkscape:window-height="2084"
   inkscape:window-x="86"
   inkscape:window-y="38"
   inkscape:window-maximized="1"
   inkscape:current-layer="Layer_1" />





<rect
   x="101.918"
   y="167.476"
   style="fill:#55ed78;fill-opacity:0.93"
   width="304.97"
   height="268.97"
   id="rect2"
   inkscape:export-filename="/home/kristoff/Downloads/rect2.png"
   inkscape:export-xdpi="96"
   inkscape:export-ydpi="96" /><g
   id="g8"
   inkscape:export-filename="/home/kristoff/Downloads/rect2.png"
   inkscape:export-xdpi="96"
   inkscape:export-ydpi="96">
	<path
   style="fill:#ccd1d9"
   d="M 73.513,181.318 H 32 c -17.64,0 -31.999,14.358 -31.999,31.998 v 127.993 c 0,17.64 14.358,31.999 31.999,31.999 h 41.513 c 5.906,0 10.671,-4.781 10.671,-10.672 V 191.989 c 0.001,-5.905 -4.765,-10.671 -10.671,-10.671 z"
   id="path4" />
	<path
   style="fill:#ccd1d9"
   d="m 479.976,181.318 h -56.48 c -5.891,0 -10.656,4.766 -10.656,10.671 v 170.647 c 0,5.891 4.766,10.672 10.656,10.672 h 56.48 c 17.641,0 31.998,-14.359 31.998,-31.999 V 213.316 c 0,-17.64 -14.357,-31.998 -31.998,-31.998 z"
   id="path6" />
</g><path
   style="fill:#ed5564"
   d="M 456.478,61.215 C 440.853,43.028 418.214,28.654 389.168,18.499 354.108,6.217 309.299,0 255.988,0 202.678,0 157.868,6.218 122.808,18.499 93.762,28.654 71.123,43.028 55.499,61.215 29.407,91.605 31.344,122.712 32,128.634 v 303.562 l 4.546,3.172 c 0.266,0.188 27.202,19.015 56.388,37.592 61.293,39.014 72.809,39.014 77.73,39.014 h 170.647 c 4.922,0 16.437,0 77.73,-39.014 29.186,-18.577 56.121,-37.404 56.387,-37.592 l 4.547,-3.172 V 128.633 c 0.658,-5.921 2.595,-37.029 -23.497,-67.418 z m -143.29,229.207 c -15.312,12.655 -22.827,27.529 -22.327,44.217 0.469,15.811 8.172,32.248 22.937,48.888 6.422,7.249 12.796,12.905 16.858,16.265 v 26.842 H 181.321 v -26.842 c 4.062,-3.359 10.437,-9.016 16.858,-16.265 14.749,-16.64 22.467,-33.077 22.936,-48.888 0.5,-16.688 -7.015,-31.562 -22.327,-44.217 -11.718,-9.688 -32.999,-14.594 -63.216,-14.594 -6.906,0 -13.202,0.266 -18.249,0.562 v -52.48 c -0.047,-8.031 3.312,-15.531 10,-22.249 26.811,-26.983 92.12,-31.015 128.665,-31.015 36.545,0 101.839,4.031 128.666,31.015 6.687,6.718 10.046,14.218 9.999,22.312 l -0.062,52.418 c -5.031,-0.297 -11.327,-0.562 -18.233,-0.562 -30.186,-0.001 -51.452,4.905 -63.17,14.593 z"
   id="path10"
   inkscape:export-filename="/home/kristoff/Downloads/rect2.png"
   inkscape:export-xdpi="96"
   inkscape:export-ydpi="96" /><g
   id="g16"
   inkscape:export-filename="/home/kristoff/Downloads/rect2.png"
   inkscape:export-xdpi="96"
   inkscape:export-ydpi="96">
	<path
   style="fill:#da4453"
   d="m 376.357,275.828 c -30.186,0 -51.451,4.906 -63.169,14.594 -15.312,12.655 -22.827,27.529 -22.327,44.217 0.078,3.077 0.453,6.171 1.094,9.296 2.594,-11.874 9.703,-22.655 21.233,-32.186 11.718,-9.672 32.983,-14.593 63.169,-14.593 6.906,0 13.202,0.266 18.233,0.578 l 0.062,-52.436 c 0,-0.344 -0.016,-0.688 -0.031,-1.016 l -0.031,32.107 c -5.031,-0.296 -11.327,-0.561 -18.233,-0.561 z"
   id="path12" />
	<path
   style="fill:#da4453"
   d="m 117.323,297.734 c 5.047,-0.312 11.343,-0.578 18.249,-0.578 30.217,0 51.498,4.921 63.216,14.593 11.53,9.53 18.64,20.312 21.233,32.186 0.641,-3.125 1.016,-6.219 1.094,-9.296 0.5,-16.688 -7.015,-31.562 -22.327,-44.217 -11.718,-9.688 -32.999,-14.594 -63.216,-14.594 -6.906,0 -13.202,0.266 -18.249,0.562 v -31.154 c 0,0 0,0 0,0.016 z"
   id="path14" />
</g><path
   style="fill:#ffce54"
   d="m 170.665,79.995 v 42.654 c 0,0 34.123,-10.655 85.323,-10.655 51.201,0 85.324,10.655 85.324,10.655 V 79.995 c 0,0 -34.123,-10.671 -85.324,-10.671 -51.2,0 -85.323,10.671 -85.323,10.671 z"
   id="path18"
   inkscape:export-filename="/home/kristoff/Downloads/rect2.png"
   inkscape:export-xdpi="96"
   inkscape:export-ydpi="96" /><path
   style="fill:#f6bb42"
   d="m 344.5,69.808 c -1.453,-0.453 -36.279,-11.156 -88.512,-11.156 -52.231,0 -87.058,10.703 -88.511,11.156 -4.453,1.391 -7.484,5.515 -7.484,10.187 v 42.654 c 0,3.391 1.609,6.578 4.343,8.593 2.734,2 6.25,2.594 9.5,1.594 11.359,-3.515 43.154,-10.187 82.152,-10.187 38.998,0 70.793,6.656 82.152,10.187 1.047,0.328 2.109,0.484 3.172,0.484 2.25,0 4.469,-0.719 6.328,-2.078 2.733,-1.999 4.343,-5.202 4.343,-8.593 V 79.995 c 0,-4.672 -3.03,-8.796 -7.483,-10.187 z m -13.844,39.155 c -14.999,-3.266 -41.279,-7.641 -74.668,-7.641 -33.389,0 -59.668,4.375 -74.667,7.641 V 88.151 c 14.89,-3.578 42.294,-8.156 74.667,-8.156 32.373,0 59.794,4.578 74.668,8.156 z"
   id="path20"
   inkscape:export-filename="/home/kristoff/Downloads/rect2.png"
   inkscape:export-xdpi="96"
   inkscape:export-ydpi="96" />
</svg>
