<?xml version="1.0" encoding="UTF-8" standalone="no"?>
<!-- Uploaded to: SVG Repo, www.svgrepo.com, Generator: SVG Repo Mixer Tools -->

<svg
   version="1.1"
   id="Layer_1"
   viewBox="0 0 511.974 511.974"
   xml:space="preserve"
   sodipodi:docname="boxing-helmet-svgrepo-com.svg"
   inkscape:version="1.1.2 (0a00cf5339, 2022-02-04)"
   xmlns:inkscape="http://www.inkscape.org/namespaces/inkscape"
   xmlns:sodipodi="http://sodipodi.sourceforge.net/DTD/sodipodi-0.dtd"
   xmlns="http://www.w3.org/2000/svg"
   xmlns:svg="http://www.w3.org/2000/svg"><defs
   id="defs25"><inkscape:perspective
     sodipodi:type="inkscape:persp3d"
     inkscape:vp_x="0 : 255.987 : 1"
     inkscape:vp_y="0 : 1000 : 0"
     inkscape:vp_z="511.974 : 255.987 : 1"
     inkscape:persp3d-origin="255.987 : 170.658 : 1"
     id="perspective30677" /></defs><sodipodi:namedview
   id="namedview23"
   pagecolor="#505050"
   bordercolor="#eeeeee"
   borderopacity="1"
   inkscape:pageshadow="0"
   inkscape:pageopacity="0"
   inkscape:pagecheckerboard="0"
   showgrid="false"
   inkscape:zoom="1.7360043"
   inkscape:cx="-144.29688"
   inkscape:cy="318.83562"
   inkscape:window-width="2474"
   inkscape:window-height="1524"
   inkscape:window-x="86"
   inkscape:window-y="38"
   inkscape:window-maximized="1"
   inkscape:current-layer="Layer_1"
   inkscape:object-paths="false" />





<path
   id="path4216"
   style="fill:#55ed78;fill-opacity:1;stroke-width:0.866673"
   inkscape:transform-center-x="-6.9151421"
   inkscape:transform-center-y="21.966847"
   d="M 149.00457,225.48131 86.44813,287.24304 C 48.08457,231.16677 -5.02922,239.37985 6.56542,162.3669 c 53.0833,30.93039 101.22289,19.8454 142.43915,63.11441 z"
   sodipodi:nodetypes="cccc" /><path
   id="path4216-3"
   style="fill:#55ed78;fill-opacity:1;stroke-width:0.866673"
   inkscape:transform-center-x="6.9151407"
   inkscape:transform-center-y="21.966847"
   d="m 363.89169,225.48131 62.55644,61.76173 c 38.36356,-56.07627 91.47735,-47.86319 79.88271,-124.87614 -53.0833,30.93039 -101.22289,19.8454 -142.43915,63.11441 z"
   sodipodi:nodetypes="cccc" /><rect
   x="131.98831"
   y="184.75128"
   style="fill:#55ee78;fill-opacity:1;stroke-width:0.804824"
   width="245.44687"
   height="216.47325"
   id="rect2"
   inkscape:export-filename="/home/kristoff/Downloads/rect2.png"
   inkscape:export-xdpi="96"
   inkscape:export-ydpi="96" /><path
   style="fill:#ed5564;stroke-width:0.804824"
   d="M 417.34637,99.230026 C 404.77101,84.592702 386.55061,73.024179 363.17373,64.851203 334.95663,54.966361 298.89332,49.962784 255.9874,49.962784 c -42.90512,0 -78.96924,5.004383 -107.18633,14.888419 -23.37689,8.172976 -41.59728,19.741499 -54.171832,34.378823 -20.99944,24.458564 -19.44051,49.494184 -18.91254,54.260344 v 244.31369 l 3.65873,2.55291 c 0.21408,0.1513 21.892802,15.30371 45.382352,30.25491 49.33003,31.39936 58.59837,31.39936 62.5589,31.39936 h 137.34064 c 3.96133,0 13.22888,0 62.55889,-31.39936 23.48956,-14.9512 45.16748,-30.10361 45.38156,-30.25491 l 3.65952,-2.55291 V 153.48957 c 0.52958,-4.76536 2.08852,-29.80178 -18.91092,-54.259544 z M 302.02328,283.7011 c -12.32346,10.18502 -18.37169,22.15596 -17.96929,35.58684 0.37746,12.72506 6.57701,25.95394 18.46023,39.34619 5.16858,5.83416 10.29852,10.38624 13.5677,13.09045 v 21.60305 H 195.89368 v -21.60304 c 3.26919,-2.70342 8.39994,-7.25629 13.5677,-13.09045 11.87035,-13.39226 18.08196,-26.62114 18.45942,-39.34619 0.40242,-13.43089 -5.64583,-25.40183 -17.96928,-35.58685 -9.43092,-7.79713 -26.55835,-11.74559 -50.87769,-11.74559 -5.55811,0 -10.62527,0.21408 -14.68721,0.4523 V 230.1707 c -0.0378,-6.46353 2.66558,-12.4997 8.04822,-17.9065 21.57812,-21.71654 74.1403,-24.96159 103.55256,-24.96159 29.41226,0 81.96237,3.24424 103.55336,24.96159 5.38185,5.4068 8.08525,11.44297 8.04743,17.9572 l -0.0499,42.18722 c -4.04906,-0.23903 -9.11622,-0.45231 -14.67434,-0.45231 -24.29438,-8e-4 -41.40975,3.94766 -50.84066,11.74479 z"
   id="path10"
   inkscape:export-filename="/home/kristoff/Downloads/rect2.png"
   inkscape:export-xdpi="96"
   inkscape:export-ydpi="96" /><g
   id="g16"
   inkscape:export-filename="/home/kristoff/Downloads/rect2.png"
   inkscape:export-xdpi="96"
   inkscape:export-ydpi="96"
   transform="matrix(0.80482302,0,0,0.80482302,49.962367,49.962775)">
	<path
   style="fill:#da4453"
   d="m 376.357,275.828 c -30.186,0 -51.451,4.906 -63.169,14.594 -15.312,12.655 -22.827,27.529 -22.327,44.217 0.078,3.077 0.453,6.171 1.094,9.296 2.594,-11.874 9.703,-22.655 21.233,-32.186 11.718,-9.672 32.983,-14.593 63.169,-14.593 6.906,0 13.202,0.266 18.233,0.578 l 0.062,-52.436 c 0,-0.344 -0.016,-0.688 -0.031,-1.016 l -0.031,32.107 c -5.031,-0.296 -11.327,-0.561 -18.233,-0.561 z"
   id="path12" />
	<path
   style="fill:#da4453"
   d="m 117.323,297.734 c 5.047,-0.312 11.343,-0.578 18.249,-0.578 30.217,0 51.498,4.921 63.216,14.593 11.53,9.53 18.64,20.312 21.233,32.186 0.641,-3.125 1.016,-6.219 1.094,-9.296 0.5,-16.688 -7.015,-31.562 -22.327,-44.217 -11.718,-9.688 -32.999,-14.594 -63.216,-14.594 -6.906,0 -13.202,0.266 -18.249,0.562 v -31.154 c 0,0 0,0 0,0.016 z"
   id="path14" />
</g><path
   style="fill:#ffce54;stroke-width:0.804824"
   d="m 187.31749,114.34459 v 34.32891 c 0,0 27.46297,-8.57539 68.66991,-8.57539 41.20775,0 68.67072,8.57539 68.67072,8.57539 v -34.32891 c 0,0 -27.46297,-8.58826 -68.67072,-8.58826 -41.20694,0 -68.66991,8.58826 -68.66991,8.58826 z"
   id="path18"
   inkscape:export-filename="/home/kristoff/Downloads/rect2.png"
   inkscape:export-xdpi="96"
   inkscape:export-ydpi="96" /><path
   style="fill:#f6bb42;stroke-width:0.804824"
   d="m 327.22389,106.14585 c -1.1694,-0.36458 -29.19816,-8.978597 -71.23649,-8.978597 -42.03671,0 -70.06628,8.614017 -71.23569,8.978597 -3.58387,1.11952 -6.02329,4.43861 -6.02329,8.19874 v 34.32891 c 0,2.72917 1.29496,5.29413 3.49534,6.91584 2.20039,1.60965 5.03015,2.08772 7.64582,1.2829 9.14198,-2.82896 34.73133,-8.19874 66.11782,-8.19874 31.38649,0 56.97584,5.3569 66.11782,8.19874 0.84265,0.26399 1.69737,0.38952 2.5529,0.38952 1.81086,0 3.59676,-0.57867 5.09292,-1.67242 2.19958,-1.60883 3.49535,-4.18667 3.49535,-6.91584 v -34.32891 c 0,-3.76013 -2.43862,-7.07922 -6.0225,-8.19874 z m -11.14197,31.51284 c -12.07154,-2.62856 -33.22228,-6.14964 -60.09452,-6.14964 -26.87223,0 -48.02218,3.52108 -60.09372,6.14964 v -16.74997 c 11.98381,-2.87966 34.03918,-6.56413 60.09372,-6.56413 26.05453,0 48.12359,3.68447 60.09452,6.56413 z"
   id="path20"
   inkscape:export-filename="/home/kristoff/Downloads/rect2.png"
   inkscape:export-xdpi="96"
   inkscape:export-ydpi="96" />
</svg>
